<svg width="28" height="28" fill="none" xmlns="http://www.w3.org/2000/svg"><path d="M27.98 6.032c0-.032.021-.063.02-.095l-8.545 8.233 8.535 7.97c.005-.056-.01-.114-.01-.172V6.032zm-9.83 9.405l-3.487 3.357a.91.91 0 01-1.255.01L9.93 15.562l-8.59 8.28c.21.075.433.133.668.133h24.046c.349 0 .676-.106.96-.264l-8.862-8.274z" fill="#000"/><path d="M14.02 16.88L27.06 4.318a1.976 1.976 0 00-1.007-.293H2.007c-.48 0-.919.186-1.261.47L14.02 16.88zM0 6.338v15.63c0 .18.041.352.086.518l8.484-8.17L0 6.338z" fill="#000"/></svg>