<svg width="28" height="28" fill="none" xmlns="http://www.w3.org/2000/svg"><path d="M13.998.291C6.268.291 0 6.584 0 14.347a14.055 14.055 0 009.576 13.337c.7.13.955-.304.955-.677 0-.334-.012-1.218-.019-2.39-3.894.848-4.716-1.885-4.716-1.885-.635-1.624-1.554-2.057-1.554-2.057-1.272-.871.095-.854.095-.854 1.405.1 2.143 1.45 2.143 1.45 1.25 2.147 3.278 1.527 4.076 1.167.126-.909.488-1.528.889-1.88-3.108-.355-6.377-1.56-6.377-6.946 0-1.534.546-2.79 1.442-3.773-.145-.355-.625-1.785.136-3.718 0 0 1.176-.378 3.85 1.44a13.357 13.357 0 013.506-.473c1.188.007 2.387.161 3.505.475 2.672-1.819 3.846-1.44 3.846-1.44.763 1.935.284 3.363.14 3.718.898.984 1.439 2.238 1.439 3.773 0 5.399-3.272 6.587-6.391 6.935.502.434.95 1.292.95 2.603 0 1.88-.017 3.395-.017 3.855 0 .376.252.814.962.675A14.056 14.056 0 0028 14.347C28 6.584 21.732.291 13.998.291z" fill="#000"/></svg>