<svg width="457" height="507" fill="none" xmlns="http://www.w3.org/2000/svg"><g id="Group 9"><path id="figure1" d="M118.137 506.463v-409.5c184.5 53.5 278.532-5.11 328.093 75.022 53.5 86.5-107.5 252.5-328.093 334.478z" fill="#B0AEB0" fill-opacity=".53"/><path id="figure2" d="M120.137 458.985v-284s237.593 58.768 237.593 128.5c0 48.5-38 117.5-237.593 155.5z" fill="#9B9A9C" fill-opacity=".45"/><path id="line4" d="M119.637 393.463c291-87 207.093-159.479 0-328.979" stroke="#858585"/><path id="line3" d="M119.73 311.984c191.501-29.5 146.5-123 0-177.5" stroke="#858585"/><path id="Line 25" d="M159.231 425.984c98.5-70.5 107.999-195-38.5-249.5" stroke="#858585" stroke-opacity=".23"/><path id="Line 28" d="M204.231 298.984c1.5-53-15-65.5-83-122.5" stroke="#858585" stroke-opacity=".23"/><path id="Line 26" d="M240.231 403.484c92-88 43.5-166.5-103-221" stroke="#858585" stroke-opacity=".23"/><path id="Line 27" d="M144.231 453.984c179-102.5 152.5-210 6-264.5" stroke="#858585" stroke-opacity=".23"/><path id="line1" d="M120.73 436.485c408.5-77.501 202.5-257.501 0-387.5" stroke="#858585"/></g></svg>