<svg width="28" height="28" viewBox="0 0 28 28" fill="none" xmlns="http://www.w3.org/2000/svg">
<path d="M27.9794 6.03202C27.9794 6.00003 28.0014 5.96888 27.9999 5.93726L19.4553 14.1705L27.9897 22.1407C27.9947 22.0838 27.9794 22.0263 27.9794 21.9682V6.03202Z" fill="black"/>
<path d="M18.1509 15.4374L14.6627 18.7935C14.4862 18.9633 14.2583 19.0485 14.0302 19.0485C13.8068 19.0485 13.5835 18.967 13.4082 18.8036L9.92949 15.562L1.33936 23.8419C1.54823 23.917 1.77243 23.9753 2.00721 23.9753H26.0532C26.4019 23.9753 26.7289 23.8691 27.0132 23.7107L18.1509 15.4374Z" fill="black"/>
<path d="M14.0202 16.8797L27.0605 4.31808C26.7653 4.14254 26.4216 4.02478 26.0533 4.02478H2.00723C1.52757 4.02478 1.08805 4.21103 0.745728 4.49508L14.0202 16.8797Z" fill="black"/>
<path d="M0 6.33795V21.9679C0 22.1474 0.0412391 22.3203 0.086006 22.4857L8.56958 14.3162L0 6.33795Z" fill="black"/>
</svg>
