<svg width="457" height="507" viewBox="0 0 457 507" fill="none" xmlns="http://www.w3.org/2000/svg">
<g id="Group 9">
<path id="figure1" d="M118.137 506.463V96.963C302.637 150.463 396.669 91.8537 446.23 171.985C499.73 258.485 338.73 424.485 118.137 506.463Z" fill="#B0AEB0" fill-opacity="0.53"/>
<path id="figure2" d="M120.137 458.985V174.985C120.137 174.985 357.73 233.753 357.73 303.485C357.73 351.985 319.73 420.985 120.137 458.985Z" fill="#9B9A9C" fill-opacity="0.45"/>
<path id="line4" d="M119.637 393.463C410.637 306.463 326.73 233.984 119.637 64.4844" stroke="#858585"/>
<path id="line3" d="M119.73 311.984C311.231 282.484 266.23 188.984 119.73 134.484" stroke="#858585"/>
<path id="Line 25" d="M159.231 425.984C257.731 355.484 267.23 230.984 120.731 176.484" stroke="#858585" stroke-opacity="0.23"/>
<path id="Line 28" d="M204.231 298.984C205.731 245.984 189.231 233.484 121.231 176.484" stroke="#858585" stroke-opacity="0.23"/>
<path id="Line 26" d="M240.231 403.484C332.231 315.484 283.731 236.984 137.231 182.484" stroke="#858585" stroke-opacity="0.23"/>
<path id="Line 27" d="M144.231 453.984C323.231 351.484 296.731 243.984 150.231 189.484" stroke="#858585" stroke-opacity="0.23"/>
<path id="line1" d="M120.73 436.485C529.23 358.984 323.23 178.984 120.73 48.9843" stroke="#858585"/>
</g>
</svg>
